HIERARCHY
ROOT Hips
{
	OFFSET 0.000000 0.000000 0.000000
	CHANNELS 6 Xposition Yposition Zposition Zrotation Yrotation Xrotation 
	JOINT LowerBack
	{
		OFFSET 0.000000 0.000000 0.000000
		CHANNELS 3 Zrotation Yrotation Xrotation
		JOINT Spine
		{
			OFFSET 0.028270 2.035590 -0.193380
			CHANNELS 3 Zrotation Yrotation Xrotation
			JOINT Spine1
			{
				OFFSET 0.056720 2.048850 -0.042750
				CHANNELS 3 Zrotation Yrotation Xrotation
				JOINT Neck
				{
					OFFSET 0.000000 0.000000 0.000000
					CHANNELS 3 Zrotation Yrotation Xrotation
					JOINT Neck1
					{
						OFFSET -0.054170 1.746240 0.172020
						CHANNELS 3 Zrotation Yrotation Xrotation
						JOINT Head
						{
							OFFSET 0.104070 1.761360 -0.123970
							CHANNELS 3 Zrotation Yrotation Xrotation
							End Site
							{
								OFFSET 0.000000 0.000000 0.000000
							}
						}
					}
				}
				JOINT LeftShoulder
				{
					OFFSET 0.000000 0.000000 0.000000
					CHANNELS 3 Zrotation Yrotation Xrotation
					JOINT LeftArm
					{
						OFFSET 3.362410 1.200890 -0.311210
						CHANNELS 3 Zrotation Yrotation Xrotation
						JOINT LeftForeArm
						{
							OFFSET 4.983000 -0.000000 -0.000000
							CHANNELS 3 Zrotation Yrotation Xrotation
							JOINT LeftHand
							{
								OFFSET 3.483560 -0.000000 -0.000000
								CHANNELS 3 Zrotation Yrotation Xrotation
								JOINT LeftFingerBase
								{
									OFFSET 0.000000 0.000000 0.000000
									CHANNELS 3 Zrotation Yrotation Xrotation
									JOINT LeftHandIndex1
									{
										OFFSET 0.715260 -0.000000 -0.000000
										CHANNELS 3 Zrotation Yrotation Xrotation
										End Site
										{
											OFFSET 0.000000 0.000000 0.000000
										}
									}
								}
								JOINT LThumb
								{
									OFFSET 0.000000 0.000000 0.000000
									CHANNELS 3 Zrotation Yrotation Xrotation
									End Site
									{
										OFFSET 0.000000 0.000000 0.000000
									}
								}
							}
						}
					}
				}
				JOINT RightShoulder
				{
					OFFSET 0.000000 0.000000 0.000000
					CHANNELS 3 Zrotation Yrotation Xrotation
					JOINT RightArm
					{
						OFFSET -3.136600 1.374050 -0.404650
						CHANNELS 3 Zrotation Yrotation Xrotation
						JOINT RightForeArm
						{
							OFFSET -5.241900 -0.000000 -0.000000
							CHANNELS 3 Zrotation Yrotation Xrotation
							JOINT RightHand
							{
								OFFSET -3.444170 -0.000000 -0.000000
								CHANNELS 3 Zrotation Yrotation Xrotation
								JOINT RightFingerBase
								{
									OFFSET 0.000000 0.000000 0.000000
									CHANNELS 3 Zrotation Yrotation Xrotation
									JOINT RightHandIndex1
									{
										OFFSET -0.622530 -0.000000 -0.000000
										CHANNELS 3 Zrotation Yrotation Xrotation
										End Site
										{
											OFFSET 0.000000 0.000000 0.000000
										}
									}
								}
								JOINT RThumb
								{
									OFFSET 0.000000 0.000000 0.000000
									CHANNELS 3 Zrotation Yrotation Xrotation
									End Site
									{
										OFFSET 0.000000 0.000000 0.000000
									}
								}
							}
						}
					}
				}
			}
		}
	}
}
}
MOTION
Frames: 19
Frame Time: 0.008333
-11.271386 16.591289 -1.029212 12.338816 84.570455 38.124444 -7.030403 1.944388 4.504657 -2.668347 2.248555 -2.198687 -7.227295 2.141815 0.499090 9.261428 6.973189 4.200197 -4.638408 -0.423274 2.648235 0.000000 0.000000 0.000000 -8.758372 3.149499 1.842017 -58.276358 -3.868858 10.700928 -3.669181 -20.566075 -0.000199 3.511947 1.115970 0.035758 -0.081854 -0.014380 0.000000 0.000000 0.000000 0.000000 0.000000 0.000000 0.000000 19.587544 7.290654 -1.234570 79.293806 27.377941 20.030716 2.406675 28.595567 0.007853 2.666899 10.715271 0.255165 -0.004525 -0.174551 0.000000 0.000000 0.000000 0.000000 0.000000 0.000000 0.000000 
-11.113621 16.607163 -1.017225 15.389966 84.289663 41.172459 -7.626145 1.837410 4.664541 -2.802075 2.162166 -2.167220 -7.272196 2.054927 0.479482 9.289706 7.196636 4.307311 -4.678200 -0.425386 2.661948 0.000000 0.000000 0.000000 -8.644928 2.847417 1.866807 -58.128753 -4.087203 10.180103 -3.706787 -19.853248 -0.000496 3.569653 1.256388 0.040648 -0.080351 -0.012369 0.000000 0.000000 0.000000 0.000000 0.000000 0.000000 0.000000 19.810658 7.323891 -1.217930 79.554254 26.851510 17.838586 2.408026 26.840803 0.007308 2.523102 10.740853 0.241754 -0.003674 -0.168764 0.000000 0.000000 0.000000 0.000000 0.000000 0.000000 0.000000 
-10.960561 16.628819 -1.007960 17.945884 84.024750 43.730314 -8.135755 1.736492 4.848043 -2.916759 2.077226 -2.126336 -7.297987 1.970317 0.464892 9.238826 7.422672 4.428941 -4.705389 -0.426725 2.679821 0.000000 0.000000 0.000000 -8.538220 2.501593 1.890007 -58.058583 -4.395572 9.629136 -3.738296 -19.093907 -0.000859 3.624226 1.408026 0.046041 -0.078683 -0.009437 0.000000 0.000000 0.000000 0.000000 0.000000 0.000000 0.000000 19.894002 7.351909 -1.203528 79.813100 26.363564 15.433366 2.403342 25.074409 0.006726 2.264046 10.751907 0.216845 -0.001486 -0.163001 0.000000 0.000000 0.000000 0.000000 0.000000 0.000000 0.000000 
-10.811798 16.655295 -1.002102 20.029670 83.780782 45.820344 -8.550410 1.641962 5.047612 -3.010048 1.994249 -2.077860 -7.306010 1.888442 0.455777 9.110098 7.648190 4.562825 -4.721686 -0.427410 2.701565 0.000000 0.000000 0.000000 -8.437963 2.116115 1.910741 -58.070788 -4.777416 9.038270 -3.762381 -18.311636 -0.001273 3.675765 1.567458 0.051732 -0.076853 -0.005711 0.000000 0.000000 0.000000 0.000000 0.000000 0.000000 0.000000 19.846538 7.374086 -1.188273 80.039435 25.901667 12.896014 2.392293 23.351869 0.006134 1.884067 10.743473 0.179938 0.002077 -0.157422 0.000000 0.000000 0.000000 0.000000 0.000000 0.000000 0.000000 
-10.666728 16.685630 -1.000479 21.585823 83.564904 47.387104 -8.855148 1.554108 5.254874 -3.078491 1.913690 -2.022722 -7.299484 1.809819 0.457205 8.907144 7.868728 4.700935 -4.729460 -0.427518 2.725244 0.000000 0.000000 0.000000 -8.351280 1.729641 1.927001 -58.161169 -5.257369 8.435639 -3.778785 -17.511437 -0.001725 3.727772 1.726392 0.057626 -0.074954 -0.001283 0.000000 0.000000 0.000000 0.000000 0.000000 0.000000 0.000000 19.681606 7.389571 -1.172352 80.204621 25.453008 10.329518 2.376541 21.728631 0.005575 1.391916 10.710677 0.132031 0.006970 -0.152108 0.000000 0.000000 0.000000 0.000000 0.000000 0.000000 0.000000 
-10.524720 16.718857 -1.003141 22.675183 83.379109 48.487165 -9.054265 1.471181 5.466568 -3.123222 1.834685 -1.960411 -7.283108 1.733738 0.475600 8.642667 8.069012 4.832196 -4.732925 -0.427187 2.747669 0.000000 0.000000 0.000000 -8.277496 1.382093 1.936904 -58.319756 -5.864299 7.853143 -3.788218 -16.700139 -0.002199 3.782448 1.877328 0.063322 -0.073086 0.003748 0.000000 0.000000 0.000000 0.000000 0.000000 0.000000 0.000000 19.431354 7.385029 -1.156849 80.286939 25.015484 7.864506 2.358947 20.245596 0.005090 0.811523 10.645162 0.075826 0.013025 -0.147021 -0.000000 0.000000 0.000000 0.000000 0.000000 0.000000 0.000000 
-10.385073 16.754078 -1.010213 23.285031 83.227258 49.104365 -9.144082 1.393181 5.675693 -3.143336 1.757770 -1.895379 -7.260155 1.660229 0.501927 8.328268 8.256254 4.964144 -4.734013 -0.426657 2.771223 0.000000 0.000000 0.000000 -8.217738 1.038813 1.942422 -58.537756 -6.521234 7.268493 -3.788879 -15.939743 -0.002671 3.840691 2.015028 0.068719 -0.071154 0.009043 0.000000 0.000000 0.000000 0.000000 0.000000 0.000000 0.000000 19.114953 7.370127 -1.137249 80.269935 24.557574 5.585397 2.342969 18.937496 0.004717 0.186303 10.542097 0.015919 0.019864 -0.142198 -0.000000 0.000000 0.000000 0.000000 0.000000 0.000000 0.000000 
-10.247228 16.790582 -1.021251 23.487666 83.106069 49.307080 -9.139203 1.317504 5.882523 -3.142692 1.681334 -1.825455 -7.236309 1.587968 0.545964 7.981606 8.406174 5.080872 -4.737593 -0.426022 2.791134 0.000000 0.000000 0.000000 -8.173330 0.754814 1.941115 -58.795056 -7.280175 6.742743 -3.783000 -15.228411 -0.003132 3.904541 2.130828 0.073618 -0.069315 0.014539 0.000000 0.000000 0.000000 0.000000 0.000000 0.000000 0.000000 18.773085 7.320904 -1.117604 80.148550 24.096507 3.613522 2.333671 17.807172 0.004494 -0.435849 10.394325 -0.042285 0.027184 -0.137396 -0.000000 0.000000 0.000000 0.000000 0.000000 0.000000 0.000000 
-10.110648 16.827713 -1.035728 23.335009 83.013064 49.143177 -9.050428 1.243358 6.083788 -3.123645 1.605212 -1.754765 -7.213784 1.516243 0.596526 7.619322 8.534815 5.193237 -4.744204 -0.425452 2.810498 0.000000 0.000000 0.000000 -8.142254 0.490201 1.936441 -59.077996 -8.064629 6.267313 -3.770236 -14.625310 -0.003563 3.973550 2.222245 0.077919 -0.067517 0.019954 0.000000 0.000000 0.000000 0.000000 0.000000 0.000000 0.000000 18.425033 7.255226 -1.094434 79.921579 23.603362 1.961933 2.333911 16.865826 0.004442 -0.987458 10.193547 -0.091991 0.034360 -0.132509 -0.000000 0.000000 0.000000 0.000000 0.000000 0.000000 0.000000 
-9.974953 16.865061 -1.052909 22.907409 82.943463 48.691390 -8.896028 1.168442 6.280458 -3.090864 1.527800 -1.681846 -7.196718 1.443621 0.659625 7.258816 8.622154 5.290284 -4.757366 -0.425016 2.826012 0.000000 0.000000 0.000000 -8.125096 0.274732 1.927231 -59.365941 -8.901626 5.891437 -3.753174 -14.137279 -0.003963 4.046274 2.284626 0.081322 -0.065903 0.025233 0.000000 0.000000 0.000000 0.000000 0.000000 0.000000 0.000000 18.105732 7.151861 -1.070489 79.591982 23.103531 0.690426 2.347414 16.090361 0.004577 -1.419867 9.937125 -0.128296 0.041052 -0.127267 -0.000000 0.000000 0.000000 0.000000 0.000000 0.000000 0.000000 
-9.839892 16.902274 -1.072030 22.278121 82.893982 48.024963 -8.691244 1.091326 6.472088 -3.047923 1.448087 -1.608127 -7.186838 1.368888 0.731226 6.915676 8.670984 5.374504 -4.777693 -0.424782 2.838354 0.000000 0.000000 0.000000 -8.120260 0.094037 1.915246 -59.643583 -9.762108 5.631413 -3.733225 -13.794282 -0.004327 4.121052 2.316852 0.083828 -0.064532 0.030258 0.000000 0.000000 0.000000 0.000000 0.000000 0.000000 0.000000 17.834902 7.013256 -1.045005 79.164083 22.597031 -0.211966 2.375384 15.469065 0.004892 -1.685823 9.624500 -0.147401 0.046808 -0.121521 -0.000000 0.000000 0.000000 0.000000 0.000000 0.000000 0.000000 
-9.705382 16.939091 -1.092344 21.520441 82.863224 47.218314 -8.449919 1.010783 6.657727 -2.997865 1.365100 -1.535515 -7.184515 1.290823 0.805591 6.602601 8.689936 5.451035 -4.804365 -0.424766 2.849054 0.000000 0.000000 0.000000 -8.124255 -0.074555 1.902778 -59.899302 -10.612413 5.493083 -3.711678 -13.621244 -0.004652 4.196027 2.318641 0.085136 -0.063464 0.034948 0.000000 0.000000 0.000000 0.000000 0.000000 0.000000 0.000000 17.622874 6.847893 -1.016600 78.644712 22.080423 -0.786243 2.417634 14.990523 0.005355 -1.750811 9.261129 -0.147506 0.051241 -0.115203 -0.000000 0.000000 0.000000 0.000000 0.000000 0.000000 0.000000 
-9.571408 16.975347 -1.113159 20.704849 82.851044 46.344704 -8.184506 0.925690 6.837954 -2.943649 1.277863 -1.463827 -7.190555 1.208478 0.883370 6.329616 8.673264 5.516985 -4.837446 -0.424952 2.857352 0.000000 0.000000 0.000000 -8.135282 -0.229952 1.890197 -60.121095 -11.457228 5.495279 -3.690466 -13.620916 -0.004946 4.269883 2.291016 0.085446 -0.062813 0.039324 0.000000 0.000000 0.000000 0.000000 0.000000 0.000000 0.000000 17.481271 6.648891 -0.985883 78.040925 21.568561 -1.055306 2.473311 14.637940 0.005917 -1.604893 8.854577 -0.129710 0.054183 -0.108247 -0.000000 0.000000 0.000000 0.000000 0.000000 0.000000 0.000000 
-9.438123 17.010881 -1.133849 19.889178 82.858427 45.465264 -7.904075 0.835562 7.012306 -2.887154 1.185890 -1.394014 -7.204178 1.121263 0.961549 6.102510 8.625367 5.574320 -4.875212 -0.425285 2.863983 0.000000 0.000000 0.000000 -8.149369 -0.385129 1.878758 -60.302981 -12.285130 5.637079 -3.670629 -13.796085 -0.005211 4.342743 2.235601 0.084559 -0.062654 0.043408 0.000000 0.000000 0.000000 0.000000 0.000000 0.000000 0.000000 17.408967 6.420726 -0.952249 77.362331 21.062776 -1.071884 2.540189 14.402733 0.006510 -1.252761 8.417477 -0.097117 0.055536 -0.100718 -0.000000 0.000000 0.000000 0.000000 0.000000 0.000000 0.000000 
-9.305605 17.045493 -1.154012 19.109752 82.886779 44.621582 -7.614376 0.740457 7.178842 -2.829537 1.089138 -1.326873 -7.224670 1.029090 1.038857 5.923812 8.549031 5.623146 -4.916016 -0.425700 2.869176 0.000000 0.000000 0.000000 -8.165133 -0.544057 1.869194 -60.438651 -13.097868 5.915875 -3.653235 -14.139301 -0.005457 4.414528 2.154653 0.082676 -0.063070 0.047263 0.000000 0.000000 0.000000 0.000000 0.000000 0.000000 0.000000 17.401489 6.166629 -0.915860 76.618786 20.563882 -0.881685 2.614823 14.282209 0.007055 -0.722822 7.961021 -0.054426 0.055384 -0.092732 -0.000000 0.000000 0.000000 0.000000 0.000000 0.000000 0.000000 
-9.174355 17.078981 -1.173253 18.406167 82.937723 43.851500 -7.321597 0.641551 7.340082 -2.771388 0.988658 -1.264413 -7.247445 0.932674 1.104819 5.790554 8.457463 5.674174 -4.955293 -0.426114 2.876292 0.000000 0.000000 0.000000 -8.162288 -0.760783 1.863265 -60.544481 -13.838294 6.264309 -3.635485 -14.659805 -0.005682 4.493462 2.048456 0.079794 -0.063935 0.050868 0.000000 0.000000 0.000000 0.000000 0.000000 0.000000 0.000000 17.435823 5.901897 -0.872340 75.829338 20.064924 -0.578632 2.695609 14.251329 0.007515 -0.032137 7.521634 -0.005436 0.053774 -0.084672 -0.000000 0.000000 0.000000 0.000000 0.000000 0.000000 0.000000 
-9.044241 17.111159 -1.191452 17.763802 83.009687 43.148878 -7.025103 0.539549 7.492045 -2.712786 0.885003 -1.204835 -7.273967 0.832953 1.169757 5.699477 8.338056 5.713286 -4.993430 -0.426419 2.881395 0.000000 0.000000 0.000000 -8.155345 -0.976419 1.858703 -60.605872 -14.587206 6.725890 -3.620673 -15.308435 -0.005907 4.576821 1.919828 0.075915 -0.065473 0.054442 0.000000 0.000000 0.000000 0.000000 0.000000 0.000000 0.000000 17.510398 5.615374 -0.827165 75.000779 19.579210 -0.160218 2.777123 14.318728 0.007814 0.743024 7.096951 0.043651 0.051223 -0.076611 -0.000000 0.000000 0.000000 0.000000 0.000000 0.000000 0.000000 
-8.915558 17.141809 -1.208505 17.174223 83.100515 42.505575 -6.726087 0.436789 7.633562 -2.653193 0.780362 -1.150700 -7.299974 0.731776 1.224236 5.643123 8.204215 5.750240 -5.026691 -0.426572 2.887539 0.000000 0.000000 0.000000 -8.128979 -1.235888 1.856568 -60.639354 -15.292534 7.226504 -3.605644 -16.090497 -0.006128 4.669273 1.770869 0.071139 -0.067515 0.057986 0.000000 0.000000 0.000000 0.000000 0.000000 0.000000 0.000000 17.600819 5.323843 -0.776725 74.150371 19.092019 0.297827 2.856223 14.470721 0.007947 1.557052 6.711258 0.089638 0.048029 -0.068967 -0.000000 0.000000 0.000000 0.000000 0.000000 0.000000 0.000000 
-8.788333 17.170707 -1.224469 16.605479 83.206035 41.891470 -6.423793 0.334839 7.764136 -2.592229 0.676242 -1.100699 -7.324715 0.630884 1.273118 5.613433 8.049851 5.777445 -5.054227 -0.426484 2.892602 0.000000 0.000000 0.000000 -8.087292 -1.508118 1.854881 -60.646771 -15.997273 7.768041 -3.591179 -16.967581 -0.006360 4.773154 1.602331 0.065566 -0.070130 0.061651 0.000000 0.000000 0.000000 0.000000 0.000000 0.000000 0.000000 17.695522 5.024236 -0.723881 73.289552 18.613671 0.777380 2.929395 14.694037 0.007929 2.345727 6.378716 0.129723 0.044680 -0.061984 -0.000000 0.000000 0.000000 0.000000 0.000000 0.000000 0.000000 
